<?xml version="1.0" encoding="UTF-8" standalone="no"?>
<svg
   height="48"
   viewBox="0 96 960 960"
   width="48"
   version="1.1"
   id="svg4"
   xmlns:xlink="http://www.w3.org/1999/xlink"
   xmlns="http://www.w3.org/2000/svg"
   xmlns:svg="http://www.w3.org/2000/svg">
  <defs
     id="defs8">
    <linearGradient
       id="linearGradient2148">
      <stop
         style="stop-color:#ff9900;stop-opacity:1;"
         offset="0"
         id="stop2144" />
      <stop
         style="stop-color:#f26daa;stop-opacity:1;"
         offset="0.5"
         id="stop2152" />
      <stop
         style="stop-color:#4285f4;stop-opacity:1;"
         offset="1"
         id="stop2146" />
    </linearGradient>
    <linearGradient
       xlink:href="#linearGradient2148"
       id="linearGradient2150"
       x1="40"
       y1="574.68009"
       x2="920"
       y2="574.68009"
       gradientUnits="userSpaceOnUse"
       gradientTransform="matrix(1.0599742,0,0,1.0797455,-31.51745,-69.486893)" />
  </defs>

  <path
     d="M 234.53605,896 Q 141.25833,896 76.069926,829.59565 10.881517,763.19131 10.881517,668.17371 q 0,-84.22015 52.998706,-147.92513 52.998707,-63.70498 134.616717,-76.66193 21.19948,-104.7353 99.63756,-171.13965 78.43809,-66.40435 181.25558,-66.40435 118.7171,0 200.33511,87.99926 81.61801,87.99925 81.61801,211.09024 v 25.91389 q 76.31814,-2.15949 129.31685,50.20816 52.99871,52.36765 52.99871,132.26882 0,74.50243 -52.99871,128.48971 Q 837.66134,896 764.52313,896 Z m 0,-64.78473 h 529.98708 q 47.69884,0 81.61801,-34.55185 33.91917,-34.55186 33.91917,-83.1404 0,-48.58855 -33.91917,-83.1404 -33.91917,-34.55186 -81.61801,-34.55186 h -66.77837 v -90.69861 q 0,-98.25684 -64.65843,-166.2808 -64.65842,-68.02397 -157.93615,-68.02397 -93.27771,0 -158.46613,68.02397 -65.18841,68.02396 -65.18841,166.2808 h -20.13951 q -65.71839,0 -111.29728,46.96892 -45.578885,46.96893 -45.578885,116.07264 0,68.02396 46.638855,115.53276 46.63886,47.5088 113.41723,47.5088 z M 477.27014,550.48145 Z"
     id="path2"
     style="fill:url(#linearGradient2150);fill-opacity:1;stroke-width:1.06982" />
  <path
     id="path133"
     d="m 493.52641,298.67049 -143.97562,303.9417 h 86.38539 v 202.6278 l 143.97561,-303.9417 h -86.38538 z"
     style="fill:#009485;fill-opacity:1;stroke-width:1.35031" />
</svg>
